<?xml version="1.0" encoding="utf-8"?>
<!-- Generator: Adobe Adobe Illustrator 28.1.0, SVG Export Plug-In . SVG Version: 6.00 Build 0)  -->
<svg version="1.1" id="Layer_4" xmlns="http://www.w3.org/2000/svg" xmlns:xlink="http://www.w3.org/1999/xlink" x="0px" y="0px"
	 width="134.1px" height="32px" viewBox="0 0 134.1 32" style="enable-background:new 0 0 134.1 32;" xml:space="preserve">
<style type="text/css">
	.st0{fill:#673AB7;}
</style>
<g id="XMLID_261_">
	<path id="XMLID_259_" class="st0" d="M5.2,0H0l14.8,25.6l2.6-4.5L5.2,0z"/>
	<path id="XMLID_258_" class="st0" d="M19.3,14.6L10.9,0H5.8l11.9,20.6l1.7-2.9c0.3-0.5,0.4-1,0.4-1.6C19.8,15.6,19.6,15,19.3,14.6z
		"/>
	<path id="XMLID_257_" class="st0" d="M9,16.7L0.2,32h5.1l6.3-10.9L9,16.7z"/>
	<path id="XMLID_256_" class="st0" d="M11.9,21.6L5.9,32h5.2l3.4-5.9L11.9,21.6z"/>
</g>
<g id="XMLID_1_">
	<polygon class="st0" points="105.8,16.7 110.9,16.7 110.9,15.2 105.8,15.2 105.8,11.1 111.5,11.1 111.5,9.6 104.2,9.6 104.2,22.2 
		105.8,22.2 	"/>
	<polygon class="st0" points="99.7,22.2 103.2,13.6 101.5,13.6 98.9,20.2 96.4,13.6 94.6,13.6 98.1,22.2 	"/>
	<path class="st0" d="M63.2,22.5c1.9,0,3.4-0.7,4.6-1.9c1.1-1.1,1.6-2.4,1.6-4.2v-0.9h-6.1v1.4h4.6c-0.1,1-0.5,1.9-1.1,2.5
		c-0.9,0.9-2.1,1.4-3.5,1.4c-1.3,0-2.4-0.5-3.4-1.4c-0.9-0.9-1.4-2.1-1.4-3.6s0.4-2.7,1.4-3.6c0.9-0.9,2.1-1.4,3.4-1.4
		c1.4,0,2.6,0.5,3.4,1.5l1.1-1.1c-0.5-0.6-1.2-1.1-2-1.4s-1.7-0.5-2.6-0.5c-1.8,0-3.3,0.6-4.6,1.9c-1.3,1.3-1.9,2.8-1.9,4.7
		c0,1.9,0.6,3.4,1.9,4.7C59.9,21.9,61.4,22.5,63.2,22.5z"/>
	<path class="st0" d="M37.8,22.5c1.9,0,3.4-0.7,4.6-1.9c1.1-1.1,1.6-2.4,1.6-4.2c0-0.3-0.1-0.6,0-0.9h-6.1V17h4.6
		c-0.1,1-0.5,1.9-1.1,2.5c-0.9,0.9-2.1,1.4-3.5,1.4c-1.3,0-2.4-0.5-3.4-1.4c-0.9-0.9-1.4-2.1-1.4-3.6s0.4-2.7,1.4-3.6
		c0.9-0.9,2.1-1.4,3.4-1.4c1.4,0,2.6,0.5,3.4,1.5l1.1-1.1c-0.5-0.6-1.2-1.1-2-1.4c-0.8-0.3-1.7-0.5-2.6-0.5c-1.8,0-3.3,0.6-4.6,1.8
		c-1.3,1.3-1.9,2.8-1.9,4.7c0,1.9,0.6,3.4,1.9,4.7C34.5,21.9,36,22.5,37.8,22.5z"/>
	<path class="st0" d="M55.7,15.8c0-1.8-0.5-3.3-1.7-4.5c-1.1-1.1-2.7-1.7-4.6-1.7h-3.8V22h3.8c1.9,0,3.4-0.5,4.6-1.7
		C55.1,19.2,55.7,17.6,55.7,15.8z M49.4,20.6h-2.2v-9.5h2.2c1.4,0,2.6,0.5,3.4,1.3c0.9,0.9,1.3,2,1.3,3.5s-0.5,2.7-1.3,3.5
		C52,20.2,50.8,20.6,49.4,20.6z"/>
	<path class="st0" d="M118.6,21.8c0.7-0.5,1.1-1,1.4-1.7l-1.4-0.6c-0.4,1-1.1,1.5-2.3,1.5c-0.7,0-1.4-0.3-1.9-0.8
		c-0.6-0.5-0.9-1.1-0.9-2h6.8v-0.3c0-1.4-0.3-2.5-1.1-3.3c-0.8-0.8-1.8-1.2-3.1-1.2c-1.2,0-2.2,0.4-3,1.3c-0.8,0.9-1.2,2-1.2,3.2
		c0,1.3,0.4,2.4,1.2,3.3c0.9,0.9,1.9,1.3,3.2,1.3C117.3,22.5,118,22.2,118.6,21.8z M114.6,15.4c0.4-0.4,0.9-0.6,1.5-0.6
		c0.8,0,1.4,0.3,1.8,0.7c0.4,0.4,0.7,0.9,0.7,1.4h-4.9C113.9,16.3,114.2,15.8,114.6,15.4z"/>
	<path class="st0" d="M125.4,17.4l-1.7-0.4c-0.7-0.2-1.1-0.5-1.1-1c0-0.3,0.2-0.6,0.5-0.8c0.3-0.2,0.7-0.3,1.2-0.3
		c1,0,1.7,0.3,2,1.1l1.4-0.6c-0.3-0.7-0.7-1.2-1.3-1.5c-0.6-0.3-1.2-0.5-2-0.5c-0.9,0-1.7,0.2-2.4,0.7c-0.7,0.4-1,1-1,1.8
		c0,0.7,0.2,1.2,0.7,1.6s1.1,0.7,1.6,0.8l1.7,0.4c0.8,0.2,1.2,0.5,1.2,1.1c0,0.4-0.2,0.7-0.5,0.9S125,21,124.5,21
		c-1.1,0-1.8-0.5-2.3-1.6l-1.4,0.6c0.3,0.8,0.8,1.3,1.4,1.8c0.7,0.5,1.4,0.7,2.4,0.7c1,0,1.8-0.3,2.3-0.7c0.6-0.5,0.9-1.1,0.9-1.9
		c0-0.5-0.2-1-0.6-1.5S126.2,17.6,125.4,17.4z"/>
	<path class="st0" d="M133.5,20.8c-0.2,0.1-0.4,0.1-0.7,0.1c-0.8,0-1.2-0.5-1.2-1.4v-4.4h2.1v-1.5h-2.1V11H130v2.6h-1.5v1.5h1.5v4.5
		c0,0.8,0.2,1.5,0.7,2s1.2,0.7,2.1,0.7c0.5,0,1-0.1,1.3-0.1L133.5,20.8z"/>
	<path class="st0" d="M79,9.6h-3.8V22H79c1.9,0,3.4-0.5,4.6-1.7c1.1-1.1,1.7-2.7,1.7-4.5s-0.5-3.3-1.7-4.5
		C82.5,10.2,80.9,9.6,79,9.6z M82.4,19.4c-0.8,0.8-2,1.2-3.4,1.2h-2.2v-9.5H79c1.4,0,2.6,0.5,3.4,1.3c0.9,0.9,1.3,2,1.3,3.5
		S83.2,18.6,82.4,19.4z"/>
	<path class="st0" d="M93,21.8c0.7-0.5,1.1-1,1.4-1.7L93,19.5c-0.4,1-1.1,1.5-2.3,1.5c-0.7,0-1.4-0.3-1.9-0.8
		c-0.6-0.5-0.9-1.1-0.9-2h6.8v-0.3c0-1.4-0.3-2.5-1.1-3.3c-0.8-0.8-1.8-1.2-3.1-1.2c-1.2,0-2.2,0.4-3,1.3c-0.8,0.9-1.2,2-1.2,3.2
		c0,1.3,0.4,2.4,1.2,3.3c0.9,0.9,1.9,1.3,3.2,1.3C91.6,22.5,92.4,22.2,93,21.8z M89,15.4c0.4-0.4,0.9-0.6,1.5-0.6
		c0.8,0,1.4,0.3,1.8,0.7c0.4,0.4,0.7,0.9,0.7,1.4h-4.9C88.3,16.3,88.6,15.8,89,15.4z"/>
</g>
</svg>
