<?xml version="1.0" encoding="utf-8"?>
<!-- Generator: Adobe Adobe Illustrator 28.1.0, SVG Export Plug-In . SVG Version: 6.00 Build 0)  -->
<svg version="1.1" id="Layer_4" xmlns="http://www.w3.org/2000/svg" xmlns:xlink="http://www.w3.org/1999/xlink" x="0px" y="0px"
	 width="536.9px" height="128px" viewBox="0 0 536.9 128" style="enable-background:new 0 0 536.9 128;" xml:space="preserve">
<style type="text/css">
	.st0{fill:none;}
	.st1{fill:#FFC107;}
	.st2{fill:#0F9D58;}
	.st3{opacity:0.2;fill:#BF360C;enable-background:new    ;}
	.st4{opacity:0.2;fill:#263238;enable-background:new    ;}
	.st5{opacity:0.2;fill:#FFFFFF;enable-background:new    ;}
	.st6{fill:url(#XMLID_00000011000832682587891940000015794545819742499510_);}
	.st7{fill:url(#XMLID_00000019653686246984483900000007139771612331768968_);}
	.st8{fill:#4285F4;}
	.st9{fill:#DB4437;}
	.st10{opacity:0.2;fill:#1A237E;enable-background:new    ;}
	.st11{opacity:0.2;fill:#3E2723;enable-background:new    ;}
	.st12{fill:url(#XMLID_00000075125320714409635510000014830813632277437885_);}
	.st13{fill:#FFFFFF;}
	.st14{font-family:'Roboto-Medium';}
	.st15{font-size:70px;}
</style>
<g id="XMLID_2_">
	<g id="XMLID_3_">
		<g id="XMLID_4_">
			<path id="XMLID_33_" class="st0" d="M78.7,58L45.1,0H0.3l37,64l-37,64h44.8l33.5-58C80.8,66.3,80.8,61.7,78.7,58z"/>
			<path id="XMLID_32_" class="st1" d="M59.4,102.3L48.8,83.9L23.3,128h21.8l14.6-25.2L59.4,102.3z"/>
			<path id="XMLID_31_" class="st0" d="M78.7,58L45.1,0H0.3l37,64l-37,64h44.8l33.5-58C80.8,66.3,80.8,61.7,78.7,58z"/>
			<path id="XMLID_30_" class="st2" d="M37.3,64l11.5,19.9L23.3,128h-23L37.3,64z"/>
			<path id="XMLID_29_" class="st0" d="M78.7,58L45.1,0H0.3l37,64l-37,64h44.8l33.5-58C80.8,66.3,80.8,61.7,78.7,58z"/>
			<path id="XMLID_28_" class="st3" d="M45.1,127H23.8l-0.5,1h21.8l14.6-25.2l-0.3-0.5L45.1,127z"/>
			<path id="XMLID_27_" class="st0" d="M78.7,58L45.1,0H0.3l37,64l-37,64h44.8l33.5-58C80.8,66.3,80.8,61.7,78.7,58z"/>
			<path id="XMLID_26_" class="st4" d="M0.8,127l-0.5,1h23l0.5-1H0.8z"/>
			<path id="XMLID_25_" class="st0" d="M78.7,58L45.1,0H0.3l37,64l-37,64h44.8l33.5-58C80.8,66.3,80.8,61.7,78.7,58z"/>
			<path id="XMLID_24_" class="st5" d="M0.3,128h0.5l36.8-63.5L37.3,64L0.3,128z"/>
			<path id="XMLID_23_" class="st0" d="M78.7,58L45.1,0H0.3l37,64l-37,64h44.8l33.5-58C80.8,66.3,80.8,61.7,78.7,58z"/>
			
				<radialGradient id="XMLID_00000132063199962262739030000010682914431522933903_" cx="59.537" cy="764.374" r="44.264" gradientTransform="matrix(1 0 0 1 0 -662)" gradientUnits="userSpaceOnUse">
				<stop  offset="0" style="stop-color:#BF360C;stop-opacity:0.2"/>
				<stop  offset="1" style="stop-color:#BF360C;stop-opacity:2.000000e-02"/>
			</radialGradient>
			<path id="XMLID_22_" style="fill:url(#XMLID_00000132063199962262739030000010682914431522933903_);" d="M59.7,102.8L48.8,83.9
				l-2.7,4.6L59.7,102.8z"/>
			<path id="XMLID_21_" class="st0" d="M78.7,58L45.1,0H0.3l37,64l-37,64h44.8l33.5-58C80.8,66.3,80.8,61.7,78.7,58z"/>
			
				<radialGradient id="XMLID_00000139283472360425091910000004557876197754726787_" cx="59.411" cy="764.654" r="44.623" gradientTransform="matrix(1 0 0 1 0 -662)" gradientUnits="userSpaceOnUse">
				<stop  offset="0" style="stop-color:#263238;stop-opacity:0.2"/>
				<stop  offset="1" style="stop-color:#263238;stop-opacity:2.000000e-02"/>
			</radialGradient>
			<path id="XMLID_20_" style="fill:url(#XMLID_00000139283472360425091910000004557876197754726787_);" d="M46.1,88.5l2.7-4.6
				L37.3,64l-5.5,9.5L46.1,88.5z"/>
			<path id="XMLID_19_" class="st0" d="M78.7,58L45.1,0H0.3l37,64l-37,64h44.8l33.5-58C80.8,66.3,80.8,61.7,78.7,58z"/>
			<g id="XMLID_16_">
				<g id="XMLID_17_">
					<path id="XMLID_18_" class="st8" d="M23.3,0h-23l59.4,102.8l11.5-19.9L23.3,0z"/>
				</g>
			</g>
			<path id="XMLID_15_" class="st0" d="M78.7,58L45.1,0H0.3l37,64l-37,64h44.8l33.5-58C80.8,66.3,80.8,61.7,78.7,58z"/>
			<path id="XMLID_14_" class="st9" d="M78.7,70c2.1-3.7,2.1-8.3,0-12L45.1,0H23.3l47.9,82.9L78.7,70z"/>
			<path id="XMLID_13_" class="st0" d="M78.7,58L45.1,0H0.3l37,64l-37,64h44.8l33.5-58C80.8,66.3,80.8,61.7,78.7,58z"/>
			<path id="XMLID_12_" class="st10" d="M71.2,82.9l-0.3-0.5l-11.2,19.4L0.8,0H0.3l59.4,102.8L71.2,82.9z"/>
			<path id="XMLID_11_" class="st0" d="M78.7,58L45.1,0H0.3l37,64l-37,64h44.8l33.5-58C80.8,66.3,80.8,61.7,78.7,58z"/>
			<path id="XMLID_10_" class="st5" d="M45.1,1l33.5,58c1,1.7,1.5,3.6,1.6,5.5c0.1-2.2-0.4-4.5-1.6-6.5L45.1,0H0.3l0.6,1
				C0.9,1,45.1,1,45.1,1z"/>
			<path id="XMLID_9_" class="st0" d="M78.7,58L45.1,0H0.3l37,64l-37,64h44.8l33.5-58C80.8,66.3,80.8,61.7,78.7,58z"/>
			<path id="XMLID_8_" class="st11" d="M71.2,82.9L78.7,70c1.2-2,1.7-4.3,1.6-6.5c-0.1,1.9-0.6,3.8-1.6,5.5L71,82.4L71.2,82.9z"/>
			<path id="XMLID_6_" class="st0" d="M78.7,58L45.1,0H0.3l37,64l-37,64h44.8l33.5-58C80.8,66.3,80.8,61.7,78.7,58z"/>
			
				<radialGradient id="XMLID_00000176746753836585249130000012182854820167345839_" cx="-0.74" cy="663" r="134.35" gradientTransform="matrix(1 0 0 1 0 -662)" gradientUnits="userSpaceOnUse">
				<stop  offset="0" style="stop-color:#FFFFFF;stop-opacity:0.1"/>
				<stop  offset="1" style="stop-color:#FFFFFF;stop-opacity:0"/>
			</radialGradient>
			<path id="XMLID_5_" style="fill:url(#XMLID_00000176746753836585249130000012182854820167345839_);" d="M78.7,58L45.1,0H0.3
				l37,64l-37,64h44.8l33.5-58C80.8,66.3,80.8,61.7,78.7,58z"/>
		</g>
	</g>
</g>
<g id="XMLID_1_">
	<polygon class="st13" points="399.4,56.2 413.4,21.9 406.5,21.9 396.3,48.5 396.2,48.5 386.1,21.9 379.1,21.9 393,56.2 	"/>
	<path class="st13" d="M223.6,31.2c0-7.4-2.3-13.5-6.9-18.1c-4.6-4.7-10.8-7-18.5-7h-15.3v50.2h15.3c7.7,0,13.9-2.4,18.5-7
		C221.3,44.7,223.6,38.6,223.6,31.2z M198.3,50h-8.9V12.2h8.9c5.8,0,10.4,1.7,13.8,5c3.4,3.3,5.1,8,5.1,13.9
		c0,5.9-1.7,10.6-5.1,13.9C208.7,48.3,204.1,50,198.3,50z"/>
	<polygon class="st13" points="423.8,56.2 423.8,34.8 444.4,34.8 444.4,28.8 423.8,28.8 423.8,12.3 446.6,12.3 446.6,6.1 417.3,6.1 
		417.3,56.2 	"/>
	<path class="st13" d="M152,57.3c7.5,0,13.7-2.5,18.4-7.4c4.1-4.1,6.2-9.7,6.2-16.7c0-1.2-0.2-2.5-0.3-3.7H152v6h18.2
		c-0.4,4.3-1.8,7.7-4.2,10.1c-3.7,3.7-8.4,5.6-14,5.6c-5.3,0-9.8-1.9-13.7-5.6c-3.9-3.8-5.8-8.6-5.8-14.5c0-6,2-10.8,5.8-14.5
		c3.9-3.7,8.4-5.6,13.7-5.6c5.8,0,10.4,2,13.7,6l4.4-4.4c-1.9-2.3-4.5-4.2-7.8-5.6c-3.3-1.4-6.7-2.1-10.3-2.1
		c-7.2,0-13.3,2.5-18.4,7.5c-5.1,5.1-7.6,11.2-7.6,18.7s2.5,13.7,7.6,18.7C138.6,54.8,144.8,57.3,152,57.3z"/>
	<path class="st13" d="M253.8,57.3c7.5,0,13.7-2.5,18.4-7.4c4.1-4.1,6.2-9.7,6.2-16.7c0-1.2-0.2-2.5-0.4-3.7h-24.2v6H272
		c-0.4,4.3-1.8,7.7-4.2,10.1c-3.7,3.7-8.4,5.6-14,5.6c-5.3,0-9.8-1.9-13.7-5.6c-3.9-3.8-5.8-8.6-5.8-14.5c0-6,2-10.8,5.8-14.5
		c3.9-3.7,8.4-5.6,13.7-5.6c5.8,0,10.4,2,13.7,6l4.4-4.4c-1.9-2.3-4.5-4.2-7.8-5.6s-6.7-2.1-10.3-2.1c-7.2,0-13.3,2.5-18.4,7.5
		c-5.1,5.1-7.6,11.2-7.6,18.7s2.5,13.7,7.6,18.7C240.4,54.8,246.6,57.3,253.8,57.3z"/>
	<path class="st13" d="M316.9,6.1h-15.3v50.2h15.3c7.7,0,13.9-2.4,18.5-7c4.6-4.6,6.9-10.7,6.9-18.1c0-7.4-2.3-13.5-6.9-18.1
		C330.8,8.4,324.6,6.1,316.9,6.1z M330.7,45c-3.4,3.3-8,5-13.8,5H308V12.2h8.9c5.8,0,10.4,1.7,13.8,5c3.4,3.3,5.1,8,5.1,13.9
		C335.8,37,334.1,41.7,330.7,45z"/>
	<path class="st13" d="M466,57.3c3.7,0,6.8-0.9,9.5-2.7c2.5-1.8,4.4-4,5.5-6.7l-5.7-2.4c-1.7,3.9-4.8,5.9-9.4,5.9
		c-2.9,0-5.4-1-7.5-3c-2.2-2-3.3-4.7-3.5-8.2H482l0.1-1.2c0-5.6-1.5-10-4.6-13.3c-3-3.3-7.1-5-12.2-5c-4.9,0-8.9,1.8-12.1,5.4
		c-3.1,3.6-4.7,7.9-4.7,12.9c0,5.3,1.7,9.6,4.9,13.1S460.8,57.3,466,57.3L466,57.3z M458.9,28.8c1.8-1.5,3.8-2.2,6.2-2.2
		c3.3,0,5.7,0.9,7.4,2.7c1.7,1.8,2.6,3.5,2.7,5.5h-19.9C455.9,32.3,457.1,30.3,458.9,28.8z"/>
	<path class="st13" d="M534.9,50.3c-0.8,0.4-1.7,0.6-2.9,0.6c-3.1,0-4.6-1.9-4.6-5.6V27.8h8.4v-5.9h-8.4V11.4H521v10.5h-6v5.9h6v18
		c0,3.5,0.9,6.2,2.8,8.1c1.9,1.9,4.6,2.9,8.2,2.9h0c2.1,0,3.8-0.3,5.1-1L534.9,50.3z"/>
	<path class="st13" d="M503.1,36.5l-6.8-1.6c-3-0.7-4.5-2-4.5-4c0-1.3,0.7-2.4,2-3.2s2.9-1.2,4.8-1.2c3.9,0,6.5,1.6,7.8,4.6l5.6-2.3
		c-1-2.6-2.7-4.5-5.1-5.9c-2.4-1.4-5.1-2.1-8.1-2.1c-3.7,0-6.9,0.9-9.6,2.8c-2.7,1.9-4,4.4-4,7.4c0,2.6,0.9,4.7,2.9,6.3
		c1.9,1.6,4,2.6,6.2,3.2l6.9,1.7c3.1,0.7,4.7,2.3,4.7,4.5c0,1.4-0.6,2.6-1.9,3.5c-1.2,0.9-2.9,1.3-4.9,1.3c-4.4,0-7.5-2.1-9.3-6.4
		l-5.7,2.4c1.2,2.8,3,5.1,5.5,7s5.7,2.8,9.5,2.8c4,0,7.3-1,9.6-3c2.5-2.1,3.8-4.6,3.8-7.7c0-2.3-0.8-4.4-2.3-6.2
		C508.7,38.5,506.3,37.2,503.1,36.5z"/>
	<path class="st13" d="M372.9,54.6c2.5-1.8,4.4-4,5.5-6.7l-5.7-2.4c-1.7,3.9-4.8,5.9-9.4,5.9c-2.9,0-5.4-1-7.5-3
		c-2.2-2-3.3-4.7-3.5-8.2h27.1l0.1-1.2c0-5.6-1.5-10-4.6-13.3c-3-3.3-7.1-5-12.2-5c-4.9,0-9,1.8-12.1,5.4c-3.1,3.6-4.7,7.9-4.7,12.9
		c0,5.3,1.7,9.6,4.9,13.1s7.4,5.2,12.6,5.2C367.1,57.3,370.3,56.4,372.9,54.6z M356.3,28.8c1.8-1.5,3.8-2.2,6.2-2.2
		c3.3,0,5.7,0.9,7.4,2.7c1.7,1.8,2.6,3.5,2.7,5.5h-19.9C353.3,32.3,354.5,30.3,356.3,28.8z"/>
</g>
<text transform="matrix(1 0 0 1 121.3758 123.883)" class="st13 st14 st15">Paris 2024</text>
</svg>
